HIERARCHY
ROOT joint_Root
{
	OFFSET 0.0 0.0 0.0
	CHANNELS 6 Xposition Yposition Zposition Zrotation Xrotation Yrotation 
	JOINT Hips
	{
		OFFSET -0.726466 93.3139 -2.00062
		CHANNELS 6 Xposition Yposition Zposition Zrotation Xrotation Yrotation 
		JOINT Spine
		{
			OFFSET 15.7357 0.0 0.0
			CHANNELS 6 Xposition Yposition Zposition Zrotation Xrotation Yrotation 
			JOINT Chest
			{
				OFFSET 8.98455 -0.406207 0.0
				CHANNELS 6 Xposition Yposition Zposition Zrotation Xrotation Yrotation 
				JOINT Neck
				{
					OFFSET 16.3773 0.0 0.0
					CHANNELS 6 Xposition Yposition Zposition Zrotation Xrotation Yrotation 
					JOINT Head
					{
						OFFSET 6.45672 0.0 0.0
						CHANNELS 6 Xposition Yposition Zposition Zrotation Xrotation Yrotation 
						End Site
						{
							OFFSET 0.0 0.0 0.0
						}
					}
				}
				JOINT Shoulder_L
				{
					OFFSET 12.9942 -0.242716 4.98039
					CHANNELS 6 Xposition Yposition Zposition Zrotation Xrotation Yrotation 
					JOINT UpperArm_L
					{
						OFFSET 5.34809 0.0 0.0
						CHANNELS 6 Xposition Yposition Zposition Zrotation Xrotation Yrotation 
						JOINT LowerArm_L
						{
							OFFSET 24.3286 1.87007e-05 0.0
							CHANNELS 6 Xposition Yposition Zposition Zrotation Xrotation Yrotation 
							JOINT Hand_L
							{
								OFFSET 22.2916 0.0 0.0
								CHANNELS 6 Xposition Yposition Zposition Zrotation Xrotation Yrotation 
								End Site
								{
									OFFSET 0.0 0.0 0.0
								}
							}
						}
					}
				}
				JOINT Shoulder_R
				{
					OFFSET 12.9945 -0.242716 -4.98039
					CHANNELS 6 Xposition Yposition Zposition Zrotation Xrotation Yrotation 
					JOINT UpperArm_R
					{
						OFFSET -5.34813 0.0 0.0
						CHANNELS 6 Xposition Yposition Zposition Zrotation Xrotation Yrotation 
						JOINT LowerArm_R
						{
							OFFSET -24.3289 0.000322201 0.0
							CHANNELS 6 Xposition Yposition Zposition Zrotation Xrotation Yrotation 
							JOINT Hand_R
							{
								OFFSET -22.2915 -0.000108084 0.0
								CHANNELS 6 Xposition Yposition Zposition Zrotation Xrotation Yrotation 
								End Site
								{
									OFFSET 0.0 0.0 0.0
								}
							}
						}
					}
				}
			}
		}
		JOINT UpperLeg_L
		{
			OFFSET -2.19248 -6.46944 0.0
			CHANNELS 6 Xposition Yposition Zposition Zrotation Xrotation Yrotation 
			JOINT LowerLeg_L
			{
				OFFSET 39.0811 0.0 -1.23785e-05
				CHANNELS 6 Xposition Yposition Zposition Zrotation Xrotation Yrotation 
				JOINT Foot_L
				{
					OFFSET 40.9854 0.0 -1.26872e-05
					CHANNELS 6 Xposition Yposition Zposition Zrotation Xrotation Yrotation 
					JOINT Toes_L
					{
						OFFSET 11.7543 0.0 0.0
						CHANNELS 6 Xposition Yposition Zposition Zrotation Xrotation Yrotation 
						End Site
						{
							OFFSET 0.0 0.0 0.0
						}
					}
				}
			}
		}
		JOINT UpperLeg_R
		{
			OFFSET -2.19251 6.46944 0.0
			CHANNELS 6 Xposition Yposition Zposition Zrotation Xrotation Yrotation 
			JOINT LowerLeg_R
			{
				OFFSET -39.0811 -0.00228153 -0.0401928
				CHANNELS 6 Xposition Yposition Zposition Zrotation Xrotation Yrotation 
				JOINT Foot_R
				{
					OFFSET -40.9854 0.0 0.0
					CHANNELS 6 Xposition Yposition Zposition Zrotation Xrotation Yrotation 
					JOINT Toes_R
					{
						OFFSET -11.7543 0.0 0.0
						CHANNELS 6 Xposition Yposition Zposition Zrotation Xrotation Yrotation 
						End Site
						{
							OFFSET 0.0 0.0 0.0
						}
					}
				}
			}
		}
	}
}
MOTION
Frames:	6
Frame Time:	0.0333333
0.000000 0.000000 0.000000 0.000000 0.000000 -0.000000 -0.549163 92.101700 0.437843 87.911700 0.173544 1.159670 15.735700 0.000005 -0.000001 80.004300 86.408700 -79.349700 8.984550 -0.406207 -0.000000 -0.684736 -1.294700 1.300800 16.377300 -0.000001 -0.000001 -1.048090 -2.344040 0.456789 6.456720 -0.000001 -0.000000 0.192042 -1.782860 -0.484626 12.994200 -0.242716 4.980390 -89.926800 -0.199903 -69.889600 5.348090 -0.000007 -0.000001 -68.717500 30.014600 -9.703070 24.328600 0.000019 0.000005 2.009900 4.171470 -25.754200 22.291600 -0.000001 0.000005 5.092270 5.549070 -8.662310 12.994500 -0.242716 -4.980390 88.194200 4.682000 -68.881400 -5.348130 -0.000001 -0.000004 -67.993100 30.040900 -11.010400 -24.328900 0.000322 -0.000009 1.876180 4.732550 -21.665800 -22.291500 -0.000108 -0.000004 9.663060 5.524320 -7.547710 -2.192480 -6.469440 -0.000000 -169.803000 -17.176100 -4.269700 39.081100 -0.000007 -0.000012 -0.179315 0.462623 21.186800 40.985400 -0.000006 -0.000013 -7.144970 -2.171320 -63.733200 11.754300 -0.000000 0.000003 -0.000145 -0.001412 -16.631300 -2.192510 6.469440 -0.000001 174.252000 23.421700 179.034000 -39.081100 -0.002282 -0.040193 -0.041722 0.140138 17.819800 -40.985400 0.000008 0.000006 -4.617470 0.624096 -63.048900 -11.754300 -0.000006 -0.000006 -0.002141 -0.030470 -17.812100
0.000000 0.000000 0.000000 0.000000 0.000000 -0.000000 -0.541034 92.114500 0.346574 87.914200 0.109949 1.204230 15.735700 0.000005 -0.000001 80.116000 86.407600 -79.481700 8.984550 -0.406207 -0.000000 -0.680350 -1.279800 1.260450 16.377300 -0.000001 -0.000001 -1.187870 -2.358240 0.445222 6.456720 -0.000001 -0.000000 -0.028279 -1.817060 -0.398339 12.994200 -0.242716 4.980390 -89.878600 -0.327849 -69.675700 5.348090 -0.000007 -0.000001 -67.892900 27.350700 -9.630670 24.328600 0.000019 0.000005 2.178050 4.575830 -25.488400 22.291600 -0.000001 0.000005 5.600290 5.547670 -8.596120 12.994500 -0.242716 -4.980390 88.263000 4.472000 -68.747800 -5.348130 -0.000001 -0.000004 -67.865500 27.916000 -10.875800 -24.328900 0.000322 -0.000009 1.897400 4.849360 -21.410200 -22.291500 -0.000108 -0.000004 9.661690 5.521790 -7.438450 -2.192480 -6.469440 -0.000000 -169.823000 -17.198300 -4.268350 39.081100 -0.000007 -0.000012 -0.177710 0.459135 21.159400 40.985400 -0.000006 -0.000013 -7.120950 -2.222460 -63.664900 11.754300 -0.000000 0.000003 -0.000137 -0.001343 -16.628700 -2.192510 6.469440 -0.000001 174.288000 23.339300 178.969000 -39.081100 -0.002282 -0.040193 -0.038006 0.128244 17.863600 -40.985400 0.000008 0.000006 -4.464510 0.553427 -63.010700 -11.754300 -0.000006 -0.000006 -0.002229 -0.031550 -17.856000
0.000000 0.000000 0.000000 0.000000 0.000000 -0.000000 -0.563863 92.117600 0.276213 87.903200 0.083980 1.236790 15.735700 0.000005 -0.000001 80.209500 86.431400 -79.598900 8.984550 -0.406207 -0.000000 -0.725723 -1.258640 1.212860 16.377300 -0.000001 -0.000001 -1.307400 -2.384310 0.466752 6.456720 -0.000001 -0.000000 -0.254043 -1.850480 -0.340369 12.994200 -0.242716 4.980390 -89.814400 -0.497721 -69.552200 5.348090 -0.000007 -0.000001 -66.532800 24.187600 -9.688080 24.328600 0.000019 0.000005 2.243480 4.860160 -24.815600 22.291600 -0.000001 0.000005 6.233910 5.548210 -8.621090 12.994500 -0.242716 -4.980390 88.335900 4.242460 -68.559200 -5.348130 -0.000001 -0.000004 -67.361100 25.244300 -10.843700 -24.328900 0.000322 -0.000009 1.866430 4.929220 -20.779300 -22.291500 -0.000108 -0.000004 9.788310 5.520380 -7.378400 -2.192480 -6.469440 -0.000000 -169.800000 -17.229400 -4.290590 39.081100 -0.000007 -0.000012 -0.177351 0.457812 21.176000 40.985400 -0.000006 -0.000013 -7.117610 -2.223250 -63.619900 11.754300 -0.000000 0.000003 -0.000144 -0.001402 -16.630900 -2.192510 6.469440 -0.000001 174.323000 23.227800 178.934000 -39.081100 -0.002282 -0.040193 -0.039798 0.133615 17.887100 -40.985400 0.000008 0.000006 -4.456610 0.507073 -62.990000 -11.754300 -0.000006 -0.000006 -0.002144 -0.030509 -17.813700
0.000000 0.000000 0.000000 0.000000 0.000000 -0.000000 -0.585239 92.121100 0.204498 87.832900 0.106050 1.310020 15.735700 0.000005 -0.000001 79.798200 86.426800 -79.188400 8.984550 -0.406207 -0.000000 -0.725357 -1.310640 1.210740 16.377300 -0.000001 -0.000001 -1.531510 -2.356960 0.493594 6.456720 -0.000001 -0.000000 -0.520039 -1.828920 -0.276717 12.994200 -0.242716 4.980390 -89.728500 -0.721985 -69.391600 5.348090 -0.000007 -0.000001 -64.594900 20.751900 -10.013500 24.328600 0.000019 0.000005 2.151750 4.891850 -23.778800 22.291600 -0.000001 0.000005 6.756780 5.546010 -8.520010 12.994500 -0.242716 -4.980390 88.425300 3.984580 -68.414800 -5.348130 -0.000001 -0.000004 -66.179300 22.404600 -11.177200 -24.328900 0.000322 -0.000009 1.769390 4.962970 -19.662100 -22.291500 -0.000108 -0.000004 10.207800 5.520760 -7.394040 -2.192480 -6.469440 -0.000000 -169.706000 -17.113300 -4.291350 39.081100 -0.000007 -0.000012 -0.178111 0.458722 21.220300 40.985400 -0.000006 -0.000013 -7.136890 -2.275570 -63.601500 11.754300 -0.000000 0.000003 -0.000139 -0.001366 -16.629600 -2.192510 6.469440 -0.000001 174.451000 23.173100 178.907000 -39.081100 -0.002282 -0.040193 -0.034377 0.116312 17.960000 -40.985400 0.000008 0.000006 -4.263400 0.359189 -62.998300 -11.754300 -0.000006 -0.000006 -0.002383 -0.033408 -17.931600
0.000000 0.000000 0.000000 0.000000 0.000000 -0.000000 -0.609054 92.122600 0.143023 87.840800 0.097933 1.377840 15.735700 0.000005 -0.000001 79.850500 86.435400 -79.280500 8.984550 -0.406207 -0.000000 -0.741635 -1.298340 1.131140 16.377300 -0.000001 -0.000001 -1.730960 -2.379270 0.595306 6.456720 -0.000001 -0.000000 -0.956122 -1.844970 -0.231071 12.994200 -0.242716 4.980390 -89.616800 -1.013190 -69.281500 5.348090 -0.000007 -0.000001 -62.214000 16.678700 -10.543600 24.328600 0.000019 0.000005 2.231140 5.386620 -22.539200 22.291600 -0.000001 0.000005 6.989030 5.541170 -8.296420 12.994500 -0.242716 -4.980390 88.519500 3.703370 -68.191700 -5.348130 -0.000001 -0.000004 -64.407400 19.280600 -11.784600 -24.328900 0.000322 -0.000009 1.696320 5.189200 -18.140000 -22.291500 -0.000108 -0.000004 10.881800 5.516820 -7.228010 -2.192480 -6.469440 -0.000000 -169.705000 -17.014400 -4.276540 39.081100 -0.000007 -0.000012 -0.178334 0.459121 21.227700 40.985400 -0.000006 -0.000013 -7.156660 -2.391540 -63.568000 11.754300 -0.000000 0.000003 -0.000141 -0.001377 -16.630000 -2.192510 6.469440 -0.000001 174.440000 23.162200 178.915000 -39.081100 -0.002282 -0.040193 -0.035527 0.119540 18.004900 -40.985400 0.000008 0.000006 -4.267480 0.376961 -62.988200 -11.754300 -0.000006 -0.000006 -0.002349 -0.033002 -17.915100
0.000000 0.000000 0.000000 0.000000 0.000000 -0.000000 -0.648723 92.123900 0.086138 87.813500 0.144632 1.459900 15.735700 0.000005 -0.000001 79.626400 86.421800 -79.086900 8.984550 -0.406207 -0.000000 -0.720015 -1.328300 1.070240 16.377300 -0.000001 -0.000001 -1.964220 -2.405250 0.775132 6.456720 -0.000001 -0.000000 -1.527220 -1.811910 -0.226761 12.994200 -0.242716 4.980390 -89.465100 -1.406960 -69.183000 5.348090 -0.000007 -0.000001 -59.672800 11.833800 -11.260100 24.328600 0.000019 0.000005 2.072870 5.420200 -20.964000 22.291600 -0.000001 0.000005 6.880530 5.535270 -8.029300 12.994500 -0.242716 -4.980390 88.675700 3.275710 -67.973700 -5.348130 -0.000001 -0.000004 -62.069500 16.201800 -12.854300 -24.328900 0.000322 -0.000009 1.481360 5.175320 -16.008600 -22.291500 -0.000108 -0.000004 11.144500 5.517040 -7.235880 -2.192480 -6.469440 -0.000000 -169.651000 -16.950400 -4.265110 39.081100 -0.000007 -0.000012 -0.178061 0.457685 21.258600 40.985400 -0.000006 -0.000013 -7.166230 -2.413900 -63.533200 11.754300 -0.000000 0.000003 -0.000151 -0.001461 -16.633100 -2.192510 6.469440 -0.000001 174.469000 23.255500 178.953000 -39.081100 -0.002282 -0.040193 -0.034730 0.116817 18.043900 -40.985400 0.000008 0.000006 -4.216820 0.403569 -62.983500 -11.754300 -0.000006 -0.000006 -0.002539 -0.035273 -18.007500
